<?xml version="1.0" standalone="no"?>
<svg xmlns="http://www.w3.org/2000/svg" width="1024" height="1024" viewBox="0 0 1024 1024"><defs><clipPath id="clip-path-dot-color"><path d="M 62 341v 31h 31v -15.5a 15.5 15.5, 0, 0, 0, -15.5 -15.5" transform="rotate(-90,77.5,356.5)"/><rect x="62" y="372" width="31" height="31" transform="rotate(0,77.5,387.5)"/><path d="M 62 403v 31h 31v -15.5a 15.5 15.5, 0, 0, 0, -15.5 -15.5" transform="rotate(90,77.5,418.5)"/><path d="M 62 465v 31h 31v -15.5a 15.5 15.5, 0, 0, 0, -15.5 -15.5" transform="rotate(-90,77.5,480.5)"/><path d="M 62 527v 15.5a 15.5 15.5, 0, 0, 0, 15.5 15.5h 15.5v -15.5a 15.5 15.5, 0, 0, 0, -15.5 -15.5" transform="rotate(90,77.5,542.5)"/><path d="M 62 620v 31h 31v -15.5a 15.5 15.5, 0, 0, 0, -15.5 -15.5" transform="rotate(-90,77.5,635.5)"/><path d="M 62 651v 31h 31v -15.5a 15.5 15.5, 0, 0, 0, -15.5 -15.5" transform="rotate(90,77.5,666.5)"/><path d="M 93 434v 31h 31v -15.5a 15.5 15.5, 0, 0, 0, -15.5 -15.5" transform="rotate(-90,108.5,449.5)"/><rect x="93" y="465" width="31" height="31" transform="rotate(0,108.5,480.5)"/><path d="M 93 558v 31h 31v -15.5a 15.5 15.5, 0, 0, 0, -15.5 -15.5" transform="rotate(-90,108.5,573.5)"/><rect x="93" y="589" width="31" height="31" transform="rotate(0,108.5,604.5)"/><path d="M 93 682v 31h 31v -15.5a 15.5 15.5, 0, 0, 0, -15.5 -15.5" transform="rotate(-90,108.5,697.5)"/><path d="M 124 310v 15.5a 15.5 15.5, 0, 0, 0, 15.5 15.5h 15.5v -15.5a 15.5 15.5, 0, 0, 0, -15.5 -15.5" transform="rotate(90,139.5,325.5)"/><rect x="124" y="465" width="31" height="31" transform="rotate(0,139.5,480.5)"/><rect x="124" y="496" width="31" height="31" transform="rotate(0,139.5,511.5)"/><rect x="124" y="558" width="31" height="31" transform="rotate(0,139.5,573.5)"/><path d="M 124 589v 31h 31v -15.5a 15.5 15.5, 0, 0, 0, -15.5 -15.5" transform="rotate(90,139.5,604.5)"/><path d="M 124 651v 31h 31v -15.5a 15.5 15.5, 0, 0, 0, -15.5 -15.5" transform="rotate(-90,139.5,666.5)"/><path d="M 124 682v 31h 31v -15.5a 15.5 15.5, 0, 0, 0, -15.5 -15.5" transform="rotate(90,139.5,697.5)"/><path d="M 155 403v 31h 31v -15.5a 15.5 15.5, 0, 0, 0, -15.5 -15.5" transform="rotate(-90,170.5,418.5)"/><path d="M 155 434v 31h 31v -15.5a 15.5 15.5, 0, 0, 0, -15.5 -15.5" transform="rotate(90,170.5,449.5)"/><rect x="155" y="496" width="31" height="31" transform="rotate(0,170.5,511.5)"/><path d="M 155 558v 31h 31v -15.5a 15.5 15.5, 0, 0, 0, -15.5 -15.5" transform="rotate(90,170.5,573.5)"/><path d="M 155 620v 31h 31v -15.5a 15.5 15.5, 0, 0, 0, -15.5 -15.5" transform="rotate(-90,170.5,635.5)"/><path d="M 155 651v 31h 31v -15.5a 15.5 15.5, 0, 0, 0, -15.5 -15.5" transform="rotate(90,170.5,666.5)"/><path d="M 186 310v 31h 31v -15.5a 15.5 15.5, 0, 0, 0, -15.5 -15.5" transform="rotate(-90,201.5,325.5)"/><path d="M 186 372v 31h 31v -15.5a 15.5 15.5, 0, 0, 0, -15.5 -15.5" transform="rotate(-90,201.5,387.5)"/><rect x="186" y="403" width="31" height="31" transform="rotate(0,201.5,418.5)"/><path d="M 186 496v 31h 31v -15.5a 15.5 15.5, 0, 0, 0, -15.5 -15.5" transform="rotate(90,201.5,511.5)"/><rect x="217" y="310" width="31" height="31" transform="rotate(0,232.5,325.5)"/><rect x="217" y="341" width="31" height="31" transform="rotate(0,232.5,356.5)"/><rect x="217" y="372" width="31" height="31" transform="rotate(0,232.5,387.5)"/><rect x="217" y="403" width="31" height="31" transform="rotate(0,232.5,418.5)"/><rect x="217" y="434" width="31" height="31" transform="rotate(0,232.5,449.5)"/><path d="M 217 620v 31h 31v -15.5a 15.5 15.5, 0, 0, 0, -15.5 -15.5" transform="rotate(-90,232.5,635.5)"/><rect x="217" y="651" width="31" height="31" transform="rotate(0,232.5,666.5)"/><rect x="217" y="682" width="31" height="31" transform="rotate(0,232.5,697.5)"/><path d="M 248 310v 31h 31v -15.5a 15.5 15.5, 0, 0, 0, -15.5 -15.5" transform="rotate(90,263.5,325.5)"/><path d="M 248 372v 31h 31v -15.5a 15.5 15.5, 0, 0, 0, -15.5 -15.5" transform="rotate(90,263.5,387.5)"/><path d="M 248 434v 31h 31v -15.5a 15.5 15.5, 0, 0, 0, -15.5 -15.5" transform="rotate(90,263.5,449.5)"/><path d="M 248 496v 15.5a 15.5 15.5, 0, 0, 0, 15.5 15.5h 15.5v -15.5a 15.5 15.5, 0, 0, 0, -15.5 -15.5" transform="rotate(90,263.5,511.5)"/><path d="M 248 558v 15.5a 15.5 15.5, 0, 0, 0, 15.5 15.5h 15.5v -15.5a 15.5 15.5, 0, 0, 0, -15.5 -15.5" transform="rotate(90,263.5,573.5)"/><rect x="248" y="620" width="31" height="31" transform="rotate(0,263.5,635.5)"/><path d="M 248 682v 31h 31v -15.5a 15.5 15.5, 0, 0, 0, -15.5 -15.5" transform="rotate(90,263.5,697.5)"/><path d="M 279 341v 31h 31v -15.5a 15.5 15.5, 0, 0, 0, -15.5 -15.5" transform="rotate(-90,294.5,356.5)"/><path d="M 279 403v 31h 31v -15.5a 15.5 15.5, 0, 0, 0, -15.5 -15.5" transform="rotate(-90,294.5,418.5)"/><path d="M 279 589v 31h 31v -15.5a 15.5 15.5, 0, 0, 0, -15.5 -15.5" transform="rotate(-90,294.5,604.5)"/><rect x="279" y="620" width="31" height="31" transform="rotate(0,294.5,635.5)"/><rect x="279" y="651" width="31" height="31" transform="rotate(0,294.5,666.5)"/><path d="M 310 93v 31h 31v -15.5a 15.5 15.5, 0, 0, 0, -15.5 -15.5" transform="rotate(-90,325.5,108.5)"/><path d="M 310 186v 31h 31v -15.5a 15.5 15.5, 0, 0, 0, -15.5 -15.5" transform="rotate(-90,325.5,201.5)"/><path d="M 310 248v 15.5a 15.5 15.5, 0, 0, 0, 15.5 15.5h 15.5v -15.5a 15.5 15.5, 0, 0, 0, -15.5 -15.5" transform="rotate(90,325.5,263.5)"/><path d="M 310 310v 31h 31v -15.5a 15.5 15.5, 0, 0, 0, -15.5 -15.5" transform="rotate(-90,325.5,325.5)"/><rect x="310" y="341" width="31" height="31" transform="rotate(0,325.5,356.5)"/><path d="M 310 403v 31h 31v -15.5a 15.5 15.5, 0, 0, 0, -15.5 -15.5" transform="rotate(90,325.5,418.5)"/><path d="M 310 465v 31h 31v -15.5a 15.5 15.5, 0, 0, 0, -15.5 -15.5" transform="rotate(-90,325.5,480.5)"/><rect x="310" y="496" width="31" height="31" transform="rotate(0,325.5,511.5)"/><rect x="310" y="527" width="31" height="31" transform="rotate(0,325.5,542.5)"/><rect x="310" y="620" width="31" height="31" transform="rotate(0,325.5,635.5)"/><rect x="310" y="651" width="31" height="31" transform="rotate(0,325.5,666.5)"/><rect x="310" y="682" width="31" height="31" transform="rotate(0,325.5,697.5)"/><path d="M 310 713v 31h 31v -15.5a 15.5 15.5, 0, 0, 0, -15.5 -15.5" transform="rotate(90,325.5,728.5)"/><path d="M 310 775v 31h 31v -15.5a 15.5 15.5, 0, 0, 0, -15.5 -15.5" transform="rotate(-90,325.5,790.5)"/><rect x="310" y="806" width="31" height="31" transform="rotate(0,325.5,821.5)"/><path d="M 310 868v 31h 31v -15.5a 15.5 15.5, 0, 0, 0, -15.5 -15.5" transform="rotate(-90,325.5,883.5)"/><path d="M 341 93v 31h 31v -15.5a 15.5 15.5, 0, 0, 0, -15.5 -15.5" transform="rotate(90,356.5,108.5)"/><path d="M 341 155v 31h 31v -15.5a 15.5 15.5, 0, 0, 0, -15.5 -15.5" transform="rotate(-90,356.5,170.5)"/><path d="M 341 186v 31h 31v -15.5a 15.5 15.5, 0, 0, 0, -15.5 -15.5" transform="rotate(90,356.5,201.5)"/><rect x="341" y="310" width="31" height="31" transform="rotate(0,356.5,325.5)"/><path d="M 341 341v 31h 31v -15.5a 15.5 15.5, 0, 0, 0, -15.5 -15.5" transform="rotate(90,356.5,356.5)"/><path d="M 341 434v 31h 31v -15.5a 15.5 15.5, 0, 0, 0, -15.5 -15.5" transform="rotate(-90,356.5,449.5)"/><rect x="341" y="496" width="31" height="31" transform="rotate(0,356.5,511.5)"/><rect x="341" y="527" width="31" height="31" transform="rotate(0,356.5,542.5)"/><rect x="341" y="558" width="31" height="31" transform="rotate(0,356.5,573.5)"/><rect x="341" y="589" width="31" height="31" transform="rotate(0,356.5,604.5)"/><rect x="341" y="651" width="31" height="31" transform="rotate(0,356.5,666.5)"/><rect x="341" y="682" width="31" height="31" transform="rotate(0,356.5,697.5)"/><path d="M 341 744v 31h 31v -15.5a 15.5 15.5, 0, 0, 0, -15.5 -15.5" transform="rotate(-90,356.5,759.5)"/><rect x="341" y="775" width="31" height="31" transform="rotate(0,356.5,790.5)"/><rect x="341" y="806" width="31" height="31" transform="rotate(0,356.5,821.5)"/><rect x="341" y="837" width="31" height="31" transform="rotate(0,356.5,852.5)"/><rect x="341" y="868" width="31" height="31" transform="rotate(0,356.5,883.5)"/><rect x="341" y="899" width="31" height="31" transform="rotate(0,356.5,914.5)"/><rect x="341" y="930" width="31" height="31" transform="rotate(0,356.5,945.5)"/><path d="M 372 62v 31h 31v -15.5a 15.5 15.5, 0, 0, 0, -15.5 -15.5" transform="rotate(-90,387.5,77.5)"/><path d="M 372 124v 31h 31v -15.5a 15.5 15.5, 0, 0, 0, -15.5 -15.5" transform="rotate(-90,387.5,139.5)"/><path d="M 372 155v 31h 31v -15.5a 15.5 15.5, 0, 0, 0, -15.5 -15.5" transform="rotate(90,387.5,170.5)"/><path d="M 372 248v 15.5a 15.5 15.5, 0, 0, 0, 15.5 15.5h 15.5v -15.5a 15.5 15.5, 0, 0, 0, -15.5 -15.5" transform="rotate(90,387.5,263.5)"/><path d="M 372 310v 31h 31v -15.5a 15.5 15.5, 0, 0, 0, -15.5 -15.5" transform="rotate(90,387.5,325.5)"/><rect x="372" y="434" width="31" height="31" transform="rotate(0,387.5,449.5)"/><rect x="372" y="465" width="31" height="31" transform="rotate(0,387.5,480.5)"/><path d="M 372 496v 31h 31v -15.5a 15.5 15.5, 0, 0, 0, -15.5 -15.5" transform="rotate(90,387.5,511.5)"/><rect x="372" y="558" width="31" height="31" transform="rotate(0,387.5,573.5)"/><rect x="372" y="589" width="31" height="31" transform="rotate(0,387.5,604.5)"/><rect x="372" y="682" width="31" height="31" transform="rotate(0,387.5,697.5)"/><rect x="372" y="713" width="31" height="31" transform="rotate(0,387.5,728.5)"/><rect x="372" y="775" width="31" height="31" transform="rotate(0,387.5,790.5)"/><rect x="372" y="806" width="31" height="31" transform="rotate(0,387.5,821.5)"/><rect x="372" y="837" width="31" height="31" transform="rotate(0,387.5,852.5)"/><path d="M 372 868v 31h 31v -15.5a 15.5 15.5, 0, 0, 0, -15.5 -15.5" transform="rotate(90,387.5,883.5)"/><rect x="372" y="930" width="31" height="31" transform="rotate(0,387.5,945.5)"/><rect x="403" y="62" width="31" height="31" transform="rotate(0,418.5,77.5)"/><rect x="403" y="93" width="31" height="31" transform="rotate(0,418.5,108.5)"/><rect x="403" y="124" width="31" height="31" transform="rotate(0,418.5,139.5)"/><path d="M 403 279v 31h 31v -15.5a 15.5 15.5, 0, 0, 0, -15.5 -15.5" transform="rotate(-90,418.5,294.5)"/><path d="M 403 341v 31h 31v -15.5a 15.5 15.5, 0, 0, 0, -15.5 -15.5" transform="rotate(-90,418.5,356.5)"/><rect x="403" y="372" width="31" height="31" transform="rotate(0,418.5,387.5)"/><rect x="403" y="403" width="31" height="31" transform="rotate(0,418.5,418.5)"/><rect x="403" y="434" width="31" height="31" transform="rotate(0,418.5,449.5)"/><rect x="403" y="465" width="31" height="31" transform="rotate(0,418.5,480.5)"/><path d="M 403 527v 31h 31v -15.5a 15.5 15.5, 0, 0, 0, -15.5 -15.5" transform="rotate(-90,418.5,542.5)"/><rect x="403" y="558" width="31" height="31" transform="rotate(0,418.5,573.5)"/><rect x="403" y="589" width="31" height="31" transform="rotate(0,418.5,604.5)"/><rect x="403" y="620" width="31" height="31" transform="rotate(0,418.5,635.5)"/><rect x="403" y="651" width="31" height="31" transform="rotate(0,418.5,666.5)"/><path d="M 403 713v 31h 31v -15.5a 15.5 15.5, 0, 0, 0, -15.5 -15.5" transform="rotate(90,418.5,728.5)"/><rect x="403" y="837" width="31" height="31" transform="rotate(0,418.5,852.5)"/><path d="M 403 899v 31h 31v -15.5a 15.5 15.5, 0, 0, 0, -15.5 -15.5" transform="rotate(-90,418.5,914.5)"/><rect x="403" y="930" width="31" height="31" transform="rotate(0,418.5,945.5)"/><rect x="434" y="93" width="31" height="31" transform="rotate(0,449.5,108.5)"/><rect x="434" y="124" width="31" height="31" transform="rotate(0,449.5,139.5)"/><path d="M 434 186v 31h 31v -15.5a 15.5 15.5, 0, 0, 0, -15.5 -15.5" transform="rotate(-90,449.5,201.5)"/><path d="M 434 248v 31h 31v -15.5a 15.5 15.5, 0, 0, 0, -15.5 -15.5" transform="rotate(-90,449.5,263.5)"/><rect x="434" y="279" width="31" height="31" transform="rotate(0,449.5,294.5)"/><rect x="434" y="310" width="31" height="31" transform="rotate(0,449.5,325.5)"/><rect x="434" y="465" width="31" height="31" transform="rotate(0,449.5,480.5)"/><rect x="434" y="527" width="31" height="31" transform="rotate(0,449.5,542.5)"/><rect x="434" y="558" width="31" height="31" transform="rotate(0,449.5,573.5)"/><rect x="434" y="589" width="31" height="31" transform="rotate(0,449.5,604.5)"/><rect x="434" y="620" width="31" height="31" transform="rotate(0,449.5,635.5)"/><path d="M 434 651v 31h 31v -15.5a 15.5 15.5, 0, 0, 0, -15.5 -15.5" transform="rotate(90,449.5,666.5)"/><path d="M 434 775v 15.5a 15.5 15.5, 0, 0, 0, 15.5 15.5h 15.5v -15.5a 15.5 15.5, 0, 0, 0, -15.5 -15.5" transform="rotate(90,449.5,790.5)"/><rect x="434" y="837" width="31" height="31" transform="rotate(0,449.5,852.5)"/><rect x="434" y="868" width="31" height="31" transform="rotate(0,449.5,883.5)"/><path d="M 434 930v 31h 31v -15.5a 15.5 15.5, 0, 0, 0, -15.5 -15.5" transform="rotate(90,449.5,945.5)"/><path d="M 465 124v 31h 31v -15.5a 15.5 15.5, 0, 0, 0, -15.5 -15.5" transform="rotate(90,480.5,139.5)"/><rect x="465" y="186" width="31" height="31" transform="rotate(0,480.5,201.5)"/><rect x="465" y="217" width="31" height="31" transform="rotate(0,480.5,232.5)"/><rect x="465" y="279" width="31" height="31" transform="rotate(0,480.5,294.5)"/><path d="M 465 310v 31h 31v -15.5a 15.5 15.5, 0, 0, 0, -15.5 -15.5" transform="rotate(90,480.5,325.5)"/><path d="M 465 403v 31h 31v -15.5a 15.5 15.5, 0, 0, 0, -15.5 -15.5" transform="rotate(-90,480.5,418.5)"/><path d="M 465 465v 31h 31v -15.5a 15.5 15.5, 0, 0, 0, -15.5 -15.5" transform="rotate(90,480.5,480.5)"/><path d="M 465 527v 31h 31v -15.5a 15.5 15.5, 0, 0, 0, -15.5 -15.5" transform="rotate(90,480.5,542.5)"/><rect x="465" y="589" width="31" height="31" transform="rotate(0,480.5,604.5)"/><rect x="465" y="620" width="31" height="31" transform="rotate(0,480.5,635.5)"/><path d="M 465 744v 15.5a 15.5 15.5, 0, 0, 0, 15.5 15.5h 15.5v -15.5a 15.5 15.5, 0, 0, 0, -15.5 -15.5" transform="rotate(90,480.5,759.5)"/><path d="M 465 806v 31h 31v -15.5a 15.5 15.5, 0, 0, 0, -15.5 -15.5" transform="rotate(-90,480.5,821.5)"/><path d="M 465 868v 31h 31v -15.5a 15.5 15.5, 0, 0, 0, -15.5 -15.5" transform="rotate(90,480.5,883.5)"/><path d="M 496 93v 15.5a 15.5 15.5, 0, 0, 0, 15.5 15.5h 15.5v -15.5a 15.5 15.5, 0, 0, 0, -15.5 -15.5" transform="rotate(90,511.5,108.5)"/><path d="M 496 155v 31h 31v -15.5a 15.5 15.5, 0, 0, 0, -15.5 -15.5" transform="rotate(-90,511.5,170.5)"/><rect x="496" y="186" width="31" height="31" transform="rotate(0,511.5,201.5)"/><rect x="496" y="217" width="31" height="31" transform="rotate(0,511.5,232.5)"/><rect x="496" y="248" width="31" height="31" transform="rotate(0,511.5,263.5)"/><rect x="496" y="279" width="31" height="31" transform="rotate(0,511.5,294.5)"/><path d="M 496 341v 31h 31v -15.5a 15.5 15.5, 0, 0, 0, -15.5 -15.5" transform="rotate(-90,511.5,356.5)"/><rect x="496" y="372" width="31" height="31" transform="rotate(0,511.5,387.5)"/><rect x="496" y="403" width="31" height="31" transform="rotate(0,511.5,418.5)"/><path d="M 496 496v 31h 31v -15.5a 15.5 15.5, 0, 0, 0, -15.5 -15.5" transform="rotate(-90,511.5,511.5)"/><path d="M 496 558v 15.5a 15.5 15.5, 0, 0, 0, 15.5 15.5h 15.5v -15.5a 15.5 15.5, 0, 0, 0, -15.5 -15.5" transform="rotate(90,511.5,573.5)"/><path d="M 496 620v 31h 31v -15.5a 15.5 15.5, 0, 0, 0, -15.5 -15.5" transform="rotate(90,511.5,635.5)"/><path d="M 496 682v 31h 31v -15.5a 15.5 15.5, 0, 0, 0, -15.5 -15.5" transform="rotate(-90,511.5,697.5)"/><rect x="496" y="713" width="31" height="31" transform="rotate(0,511.5,728.5)"/><path d="M 496 806v 31h 31v -15.5a 15.5 15.5, 0, 0, 0, -15.5 -15.5" transform="rotate(90,511.5,821.5)"/><path d="M 496 930v 31h 31v -15.5a 15.5 15.5, 0, 0, 0, -15.5 -15.5" transform="rotate(-90,511.5,945.5)"/><path d="M 527 62v 15.5a 15.5 15.5, 0, 0, 0, 15.5 15.5h 15.5v -15.5a 15.5 15.5, 0, 0, 0, -15.5 -15.5" transform="rotate(90,542.5,77.5)"/><path d="M 527 186v 31h 31v -15.5a 15.5 15.5, 0, 0, 0, -15.5 -15.5" transform="rotate(90,542.5,201.5)"/><rect x="527" y="279" width="31" height="31" transform="rotate(0,542.5,294.5)"/><rect x="527" y="372" width="31" height="31" transform="rotate(0,542.5,387.5)"/><rect x="527" y="403" width="31" height="31" transform="rotate(0,542.5,418.5)"/><rect x="527" y="434" width="31" height="31" transform="rotate(0,542.5,449.5)"/><path d="M 527 496v 31h 31v -15.5a 15.5 15.5, 0, 0, 0, -15.5 -15.5" transform="rotate(90,542.5,511.5)"/><rect x="527" y="713" width="31" height="31" transform="rotate(0,542.5,728.5)"/><path d="M 527 775v 15.5a 15.5 15.5, 0, 0, 0, 15.5 15.5h 15.5v -15.5a 15.5 15.5, 0, 0, 0, -15.5 -15.5" transform="rotate(90,542.5,790.5)"/><path d="M 527 837v 15.5a 15.5 15.5, 0, 0, 0, 15.5 15.5h 15.5v -15.5a 15.5 15.5, 0, 0, 0, -15.5 -15.5" transform="rotate(90,542.5,852.5)"/><path d="M 527 899v 31h 31v -15.5a 15.5 15.5, 0, 0, 0, -15.5 -15.5" transform="rotate(-90,542.5,914.5)"/><path d="M 527 930v 31h 31v -15.5a 15.5 15.5, 0, 0, 0, -15.5 -15.5" transform="rotate(90,542.5,945.5)"/><path d="M 558 93v 31h 31v -15.5a 15.5 15.5, 0, 0, 0, -15.5 -15.5" transform="rotate(-90,573.5,108.5)"/><rect x="558" y="124" width="31" height="31" transform="rotate(0,573.5,139.5)"/><path d="M 558 217v 31h 31v -15.5a 15.5 15.5, 0, 0, 0, -15.5 -15.5" transform="rotate(-90,573.5,232.5)"/><rect x="558" y="248" width="31" height="31" transform="rotate(0,573.5,263.5)"/><rect x="558" y="279" width="31" height="31" transform="rotate(0,573.5,294.5)"/><rect x="558" y="372" width="31" height="31" transform="rotate(0,573.5,387.5)"/><rect x="558" y="403" width="31" height="31" transform="rotate(0,573.5,418.5)"/><rect x="558" y="434" width="31" height="31" transform="rotate(0,573.5,449.5)"/><path d="M 558 558v 15.5a 15.5 15.5, 0, 0, 0, 15.5 15.5h 15.5v -15.5a 15.5 15.5, 0, 0, 0, -15.5 -15.5" transform="rotate(90,573.5,573.5)"/><path d="M 558 651v 31h 31v -15.5a 15.5 15.5, 0, 0, 0, -15.5 -15.5" transform="rotate(-90,573.5,666.5)"/><rect x="558" y="682" width="31" height="31" transform="rotate(0,573.5,697.5)"/><rect x="558" y="713" width="31" height="31" transform="rotate(0,573.5,728.5)"/><path d="M 558 806v 31h 31v -15.5a 15.5 15.5, 0, 0, 0, -15.5 -15.5" transform="rotate(-90,573.5,821.5)"/><path d="M 589 62v 15.5a 15.5 15.5, 0, 0, 0, 15.5 15.5h 15.5v -15.5a 15.5 15.5, 0, 0, 0, -15.5 -15.5" transform="rotate(90,604.5,77.5)"/><path d="M 589 124v 31h 31v -15.5a 15.5 15.5, 0, 0, 0, -15.5 -15.5" transform="rotate(90,604.5,139.5)"/><rect x="589" y="217" width="31" height="31" transform="rotate(0,604.5,232.5)"/><rect x="589" y="279" width="31" height="31" transform="rotate(0,604.5,294.5)"/><path d="M 589 310v 31h 31v -15.5a 15.5 15.5, 0, 0, 0, -15.5 -15.5" transform="rotate(90,604.5,325.5)"/><path d="M 589 372v 31h 31v -15.5a 15.5 15.5, 0, 0, 0, -15.5 -15.5" transform="rotate(90,604.5,387.5)"/><rect x="589" y="434" width="31" height="31" transform="rotate(0,604.5,449.5)"/><path d="M 589 496v 31h 31v -15.5a 15.5 15.5, 0, 0, 0, -15.5 -15.5" transform="rotate(-90,604.5,511.5)"/><path d="M 589 589v 31h 31v -15.5a 15.5 15.5, 0, 0, 0, -15.5 -15.5" transform="rotate(-90,604.5,604.5)"/><rect x="589" y="620" width="31" height="31" transform="rotate(0,604.5,635.5)"/><path d="M 589 651v 31h 31v -15.5a 15.5 15.5, 0, 0, 0, -15.5 -15.5" transform="rotate(90,604.5,666.5)"/><path d="M 589 713v 31h 31v -15.5a 15.5 15.5, 0, 0, 0, -15.5 -15.5" transform="rotate(90,604.5,728.5)"/><path d="M 589 775v 31h 31v -15.5a 15.5 15.5, 0, 0, 0, -15.5 -15.5" transform="rotate(-90,604.5,790.5)"/><rect x="589" y="806" width="31" height="31" transform="rotate(0,604.5,821.5)"/><path d="M 589 868v 31h 31v -15.5a 15.5 15.5, 0, 0, 0, -15.5 -15.5" transform="rotate(-90,604.5,883.5)"/><path d="M 589 930v 31h 31v -15.5a 15.5 15.5, 0, 0, 0, -15.5 -15.5" transform="rotate(-90,604.5,945.5)"/><path d="M 620 155v 31h 31v -15.5a 15.5 15.5, 0, 0, 0, -15.5 -15.5" transform="rotate(-90,635.5,170.5)"/><rect x="620" y="186" width="31" height="31" transform="rotate(0,635.5,201.5)"/><rect x="620" y="217" width="31" height="31" transform="rotate(0,635.5,232.5)"/><path d="M 620 248v 31h 31v -15.5a 15.5 15.5, 0, 0, 0, -15.5 -15.5" transform="rotate(90,635.5,263.5)"/><path d="M 620 341v 15.5a 15.5 15.5, 0, 0, 0, 15.5 15.5h 15.5v -15.5a 15.5 15.5, 0, 0, 0, -15.5 -15.5" transform="rotate(90,635.5,356.5)"/><rect x="620" y="434" width="31" height="31" transform="rotate(0,635.5,449.5)"/><rect x="620" y="465" width="31" height="31" transform="rotate(0,635.5,480.5)"/><rect x="620" y="496" width="31" height="31" transform="rotate(0,635.5,511.5)"/><rect x="620" y="527" width="31" height="31" transform="rotate(0,635.5,542.5)"/><path d="M 620 620v 31h 31v -15.5a 15.5 15.5, 0, 0, 0, -15.5 -15.5" transform="rotate(90,635.5,635.5)"/><path d="M 620 682v 15.5a 15.5 15.5, 0, 0, 0, 15.5 15.5h 15.5v -15.5a 15.5 15.5, 0, 0, 0, -15.5 -15.5" transform="rotate(90,635.5,697.5)"/><rect x="620" y="806" width="31" height="31" transform="rotate(0,635.5,821.5)"/><path d="M 620 868v 31h 31v -15.5a 15.5 15.5, 0, 0, 0, -15.5 -15.5" transform="rotate(90,635.5,883.5)"/><path d="M 620 930v 31h 31v -15.5a 15.5 15.5, 0, 0, 0, -15.5 -15.5" transform="rotate(90,635.5,945.5)"/><path d="M 651 124v 15.5a 15.5 15.5, 0, 0, 0, 15.5 15.5h 15.5v -15.5a 15.5 15.5, 0, 0, 0, -15.5 -15.5" transform="rotate(90,666.5,139.5)"/><rect x="651" y="186" width="31" height="31" transform="rotate(0,666.5,201.5)"/><path d="M 651 310v 31h 31v -15.5a 15.5 15.5, 0, 0, 0, -15.5 -15.5" transform="rotate(-90,666.5,325.5)"/><path d="M 651 372v 15.5a 15.5 15.5, 0, 0, 0, 15.5 15.5h 15.5v -15.5a 15.5 15.5, 0, 0, 0, -15.5 -15.5" transform="rotate(90,666.5,387.5)"/><rect x="651" y="465" width="31" height="31" transform="rotate(0,666.5,480.5)"/><rect x="651" y="496" width="31" height="31" transform="rotate(0,666.5,511.5)"/><rect x="651" y="527" width="31" height="31" transform="rotate(0,666.5,542.5)"/><rect x="651" y="558" width="31" height="31" transform="rotate(0,666.5,573.5)"/><rect x="651" y="589" width="31" height="31" transform="rotate(0,666.5,604.5)"/><rect x="651" y="806" width="31" height="31" transform="rotate(0,666.5,821.5)"/><path d="M 651 837v 31h 31v -15.5a 15.5 15.5, 0, 0, 0, -15.5 -15.5" transform="rotate(90,666.5,852.5)"/><path d="M 651 899v 15.5a 15.5 15.5, 0, 0, 0, 15.5 15.5h 15.5v -15.5a 15.5 15.5, 0, 0, 0, -15.5 -15.5" transform="rotate(90,666.5,914.5)"/><path d="M 682 62v 31h 31v -15.5a 15.5 15.5, 0, 0, 0, -15.5 -15.5" transform="rotate(-90,697.5,77.5)"/><path d="M 682 93v 31h 31v -15.5a 15.5 15.5, 0, 0, 0, -15.5 -15.5" transform="rotate(90,697.5,108.5)"/><path d="M 682 186v 31h 31v -15.5a 15.5 15.5, 0, 0, 0, -15.5 -15.5" transform="rotate(90,697.5,201.5)"/><path d="M 682 248v 31h 31v -15.5a 15.5 15.5, 0, 0, 0, -15.5 -15.5" transform="rotate(-90,697.5,263.5)"/><rect x="682" y="279" width="31" height="31" transform="rotate(0,697.5,294.5)"/><rect x="682" y="310" width="31" height="31" transform="rotate(0,697.5,325.5)"/><path d="M 682 434v 31h 31v -15.5a 15.5 15.5, 0, 0, 0, -15.5 -15.5" transform="rotate(-90,697.5,449.5)"/><rect x="682" y="465" width="31" height="31" transform="rotate(0,697.5,480.5)"/><path d="M 682 589v 31h 31v -15.5a 15.5 15.5, 0, 0, 0, -15.5 -15.5" transform="rotate(90,697.5,604.5)"/><path d="M 682 651v 31h 31v -15.5a 15.5 15.5, 0, 0, 0, -15.5 -15.5" transform="rotate(-90,697.5,666.5)"/><rect x="682" y="682" width="31" height="31" transform="rotate(0,697.5,697.5)"/><rect x="682" y="713" width="31" height="31" transform="rotate(0,697.5,728.5)"/><rect x="682" y="744" width="31" height="31" transform="rotate(0,697.5,759.5)"/><rect x="682" y="775" width="31" height="31" transform="rotate(0,697.5,790.5)"/><rect x="682" y="806" width="31" height="31" transform="rotate(0,697.5,821.5)"/><path d="M 682 868v 31h 31v -15.5a 15.5 15.5, 0, 0, 0, -15.5 -15.5" transform="rotate(-90,697.5,883.5)"/><path d="M 682 930v 31h 31v -15.5a 15.5 15.5, 0, 0, 0, -15.5 -15.5" transform="rotate(-90,697.5,945.5)"/><rect x="713" y="310" width="31" height="31" transform="rotate(0,728.5,325.5)"/><rect x="713" y="341" width="31" height="31" transform="rotate(0,728.5,356.5)"/><path d="M 713 403v 31h 31v -15.5a 15.5 15.5, 0, 0, 0, -15.5 -15.5" transform="rotate(-90,728.5,418.5)"/><rect x="713" y="465" width="31" height="31" transform="rotate(0,728.5,480.5)"/><path d="M 713 527v 31h 31v -15.5a 15.5 15.5, 0, 0, 0, -15.5 -15.5" transform="rotate(-90,728.5,542.5)"/><path d="M 713 620v 15.5a 15.5 15.5, 0, 0, 0, 15.5 15.5h 15.5v -15.5a 15.5 15.5, 0, 0, 0, -15.5 -15.5" transform="rotate(90,728.5,635.5)"/><rect x="713" y="682" width="31" height="31" transform="rotate(0,728.5,697.5)"/><rect x="713" y="806" width="31" height="31" transform="rotate(0,728.5,821.5)"/><rect x="713" y="868" width="31" height="31" transform="rotate(0,728.5,883.5)"/><rect x="713" y="899" width="31" height="31" transform="rotate(0,728.5,914.5)"/><rect x="713" y="930" width="31" height="31" transform="rotate(0,728.5,945.5)"/><rect x="744" y="341" width="31" height="31" transform="rotate(0,759.5,356.5)"/><rect x="744" y="403" width="31" height="31" transform="rotate(0,759.5,418.5)"/><rect x="744" y="434" width="31" height="31" transform="rotate(0,759.5,449.5)"/><rect x="744" y="465" width="31" height="31" transform="rotate(0,759.5,480.5)"/><rect x="744" y="496" width="31" height="31" transform="rotate(0,759.5,511.5)"/><path d="M 744 527v 31h 31v -15.5a 15.5 15.5, 0, 0, 0, -15.5 -15.5" transform="rotate(90,759.5,542.5)"/><path d="M 744 589v 31h 31v -15.5a 15.5 15.5, 0, 0, 0, -15.5 -15.5" transform="rotate(-90,759.5,604.5)"/><path d="M 744 651v 31h 31v -15.5a 15.5 15.5, 0, 0, 0, -15.5 -15.5" transform="rotate(-90,759.5,666.5)"/><rect x="744" y="682" width="31" height="31" transform="rotate(0,759.5,697.5)"/><path d="M 744 744v 15.5a 15.5 15.5, 0, 0, 0, 15.5 15.5h 15.5v -15.5a 15.5 15.5, 0, 0, 0, -15.5 -15.5" transform="rotate(90,759.5,759.5)"/><rect x="744" y="806" width="31" height="31" transform="rotate(0,759.5,821.5)"/><rect x="744" y="899" width="31" height="31" transform="rotate(0,759.5,914.5)"/><path d="M 744 930v 31h 31v -15.5a 15.5 15.5, 0, 0, 0, -15.5 -15.5" transform="rotate(90,759.5,945.5)"/><rect x="775" y="341" width="31" height="31" transform="rotate(0,790.5,356.5)"/><path d="M 775 372v 31h 31v -15.5a 15.5 15.5, 0, 0, 0, -15.5 -15.5" transform="rotate(90,790.5,387.5)"/><path d="M 775 496v 31h 31v -15.5a 15.5 15.5, 0, 0, 0, -15.5 -15.5" transform="rotate(90,790.5,511.5)"/><rect x="775" y="589" width="31" height="31" transform="rotate(0,790.5,604.5)"/><rect x="775" y="620" width="31" height="31" transform="rotate(0,790.5,635.5)"/><rect x="775" y="651" width="31" height="31" transform="rotate(0,790.5,666.5)"/><rect x="775" y="682" width="31" height="31" transform="rotate(0,790.5,697.5)"/><rect x="775" y="806" width="31" height="31" transform="rotate(0,790.5,821.5)"/><path d="M 775 837v 31h 31v -15.5a 15.5 15.5, 0, 0, 0, -15.5 -15.5" transform="rotate(90,790.5,852.5)"/><path d="M 806 310v 15.5a 15.5 15.5, 0, 0, 0, 15.5 15.5h 15.5v -15.5a 15.5 15.5, 0, 0, 0, -15.5 -15.5" transform="rotate(90,821.5,325.5)"/><path d="M 806 403v 31h 31v -15.5a 15.5 15.5, 0, 0, 0, -15.5 -15.5" transform="rotate(-90,821.5,418.5)"/><rect x="806" y="434" width="31" height="31" transform="rotate(0,821.5,449.5)"/><path d="M 806 465v 31h 31v -15.5a 15.5 15.5, 0, 0, 0, -15.5 -15.5" transform="rotate(90,821.5,480.5)"/><path d="M 806 527v 15.5a 15.5 15.5, 0, 0, 0, 15.5 15.5h 15.5v -15.5a 15.5 15.5, 0, 0, 0, -15.5 -15.5" transform="rotate(90,821.5,542.5)"/><rect x="806" y="620" width="31" height="31" transform="rotate(0,821.5,635.5)"/><rect x="806" y="651" width="31" height="31" transform="rotate(0,821.5,666.5)"/><rect x="806" y="682" width="31" height="31" transform="rotate(0,821.5,697.5)"/><rect x="806" y="713" width="31" height="31" transform="rotate(0,821.5,728.5)"/><rect x="806" y="744" width="31" height="31" transform="rotate(0,821.5,759.5)"/><rect x="806" y="775" width="31" height="31" transform="rotate(0,821.5,790.5)"/><path d="M 806 806v 31h 31v -15.5a 15.5 15.5, 0, 0, 0, -15.5 -15.5" transform="rotate(90,821.5,821.5)"/><path d="M 806 899v 31h 31v -15.5a 15.5 15.5, 0, 0, 0, -15.5 -15.5" transform="rotate(-90,821.5,914.5)"/><path d="M 806 930v 31h 31v -15.5a 15.5 15.5, 0, 0, 0, -15.5 -15.5" transform="rotate(90,821.5,945.5)"/><path d="M 837 403v 31h 31v -15.5a 15.5 15.5, 0, 0, 0, -15.5 -15.5" transform="rotate(90,852.5,418.5)"/><path d="M 837 558v 31h 31v -15.5a 15.5 15.5, 0, 0, 0, -15.5 -15.5" transform="rotate(-90,852.5,573.5)"/><rect x="837" y="589" width="31" height="31" transform="rotate(0,852.5,604.5)"/><path d="M 837 775v 31h 31v -15.5a 15.5 15.5, 0, 0, 0, -15.5 -15.5" transform="rotate(90,852.5,790.5)"/><path d="M 837 837v 31h 31v -15.5a 15.5 15.5, 0, 0, 0, -15.5 -15.5" transform="rotate(-90,852.5,852.5)"/><rect x="837" y="868" width="31" height="31" transform="rotate(0,852.5,883.5)"/><rect x="837" y="899" width="31" height="31" transform="rotate(0,852.5,914.5)"/><path d="M 868 434v 31h 31v -15.5a 15.5 15.5, 0, 0, 0, -15.5 -15.5" transform="rotate(-90,883.5,449.5)"/><rect x="868" y="465" width="31" height="31" transform="rotate(0,883.5,480.5)"/><rect x="868" y="496" width="31" height="31" transform="rotate(0,883.5,511.5)"/><rect x="868" y="558" width="31" height="31" transform="rotate(0,883.5,573.5)"/><rect x="868" y="589" width="31" height="31" transform="rotate(0,883.5,604.5)"/><path d="M 868 651v 31h 31v -15.5a 15.5 15.5, 0, 0, 0, -15.5 -15.5" transform="rotate(-90,883.5,666.5)"/><rect x="868" y="682" width="31" height="31" transform="rotate(0,883.5,697.5)"/><path d="M 868 713v 31h 31v -15.5a 15.5 15.5, 0, 0, 0, -15.5 -15.5" transform="rotate(90,883.5,728.5)"/><rect x="868" y="868" width="31" height="31" transform="rotate(0,883.5,883.5)"/><rect x="868" y="899" width="31" height="31" transform="rotate(0,883.5,914.5)"/><rect x="868" y="930" width="31" height="31" transform="rotate(0,883.5,945.5)"/><path d="M 899 310v 31h 31v -15.5a 15.5 15.5, 0, 0, 0, -15.5 -15.5" transform="rotate(-90,914.5,325.5)"/><rect x="899" y="341" width="31" height="31" transform="rotate(0,914.5,356.5)"/><rect x="899" y="496" width="31" height="31" transform="rotate(0,914.5,511.5)"/><rect x="899" y="589" width="31" height="31" transform="rotate(0,914.5,604.5)"/><path d="M 899 620v 31h 31v -15.5a 15.5 15.5, 0, 0, 0, -15.5 -15.5" transform="rotate(90,914.5,635.5)"/><rect x="899" y="682" width="31" height="31" transform="rotate(0,914.5,697.5)"/><path d="M 899 744v 31h 31v -15.5a 15.5 15.5, 0, 0, 0, -15.5 -15.5" transform="rotate(-90,914.5,759.5)"/><path d="M 899 775v 31h 31v -15.5a 15.5 15.5, 0, 0, 0, -15.5 -15.5" transform="rotate(90,914.5,790.5)"/><path d="M 899 837v 31h 31v -15.5a 15.5 15.5, 0, 0, 0, -15.5 -15.5" transform="rotate(-90,914.5,852.5)"/><rect x="899" y="899" width="31" height="31" transform="rotate(0,914.5,914.5)"/><path d="M 899 930v 31h 31v -15.5a 15.5 15.5, 0, 0, 0, -15.5 -15.5" transform="rotate(90,914.5,945.5)"/><path d="M 930 341v 31h 31v -15.5a 15.5 15.5, 0, 0, 0, -15.5 -15.5" transform="rotate(90,945.5,356.5)"/><path d="M 930 403v 15.5a 15.5 15.5, 0, 0, 0, 15.5 15.5h 15.5v -15.5a 15.5 15.5, 0, 0, 0, -15.5 -15.5" transform="rotate(90,945.5,418.5)"/><rect x="930" y="496" width="31" height="31" transform="rotate(0,945.5,511.5)"/><path d="M 930 527v 31h 31v -15.5a 15.5 15.5, 0, 0, 0, -15.5 -15.5" transform="rotate(90,945.5,542.5)"/><path d="M 930 589v 31h 31v -15.5a 15.5 15.5, 0, 0, 0, -15.5 -15.5" transform="rotate(90,945.5,604.5)"/><rect x="930" y="682" width="31" height="31" transform="rotate(0,945.5,697.5)"/><rect x="930" y="713" width="31" height="31" transform="rotate(0,945.5,728.5)"/><path d="M 930 744v 31h 31v -15.5a 15.5 15.5, 0, 0, 0, -15.5 -15.5" transform="rotate(90,945.5,759.5)"/><path d="M 930 806v 31h 31v -15.5a 15.5 15.5, 0, 0, 0, -15.5 -15.5" transform="rotate(-90,945.5,821.5)"/><rect x="930" y="837" width="31" height="31" transform="rotate(0,945.5,852.5)"/><rect x="930" y="868" width="31" height="31" transform="rotate(0,945.5,883.5)"/><path d="M 930 899v 31h 31v -15.5a 15.5 15.5, 0, 0, 0, -15.5 -15.5" transform="rotate(90,945.5,914.5)"/></clipPath><clipPath id="clip-path-corners-square-color-0-0"><path clip-rule="evenodd" d="M 62 139.5v 62a 77.5 77.5, 0, 0, 0, 77.5 77.5h 62a 77.5 77.5, 0, 0, 0, 77.5 -77.5v -62a 77.5 77.5, 0, 0, 0, -77.5 -77.5h -62a 77.5 77.5, 0, 0, 0, -77.5 77.5M 139.5 93h 62a 46.5 46.5, 0, 0, 1, 46.5 46.5v 62a 46.5 46.5, 0, 0, 1, -46.5 46.5h -62a 46.5 46.5, 0, 0, 1, -46.5 -46.5v -62a 46.5 46.5, 0, 0, 1, 46.5 -46.5" transform="rotate(0,170.5,170.5)"/></clipPath><clipPath id="clip-path-corners-dot-color-0-0"><path d="m 124 124 m 66.429 93 h -39.857 c -14.681 0 -26.571 -11.891 -26.571 -26.571 v -39.857 c 0 -14.681 11.891 -26.571 26.571 -26.571 h 39.857 c 14.681 0 26.571 11.891 26.571 26.571 v 39.857 c 0 14.681 -11.891 26.571 -26.571 26.571 z"/></clipPath><clipPath id="clip-path-corners-square-color-1-0"><path clip-rule="evenodd" d="M 744 139.5v 62a 77.5 77.5, 0, 0, 0, 77.5 77.5h 62a 77.5 77.5, 0, 0, 0, 77.5 -77.5v -62a 77.5 77.5, 0, 0, 0, -77.5 -77.5h -62a 77.5 77.5, 0, 0, 0, -77.5 77.5M 821.5 93h 62a 46.5 46.5, 0, 0, 1, 46.5 46.5v 62a 46.5 46.5, 0, 0, 1, -46.5 46.5h -62a 46.5 46.5, 0, 0, 1, -46.5 -46.5v -62a 46.5 46.5, 0, 0, 1, 46.5 -46.5" transform="rotate(90,852.5,170.5)"/></clipPath><clipPath id="clip-path-corners-dot-color-1-0"><path d="m 806 124 m 66.429 93 h -39.857 c -14.681 0 -26.571 -11.891 -26.571 -26.571 v -39.857 c 0 -14.681 11.891 -26.571 26.571 -26.571 h 39.857 c 14.681 0 26.571 11.891 26.571 26.571 v 39.857 c 0 14.681 -11.891 26.571 -26.571 26.571 z"/></clipPath><clipPath id="clip-path-corners-square-color-0-1"><path clip-rule="evenodd" d="M 62 821.5v 62a 77.5 77.5, 0, 0, 0, 77.5 77.5h 62a 77.5 77.5, 0, 0, 0, 77.5 -77.5v -62a 77.5 77.5, 0, 0, 0, -77.5 -77.5h -62a 77.5 77.5, 0, 0, 0, -77.5 77.5M 139.5 775h 62a 46.5 46.5, 0, 0, 1, 46.5 46.5v 62a 46.5 46.5, 0, 0, 1, -46.5 46.5h -62a 46.5 46.5, 0, 0, 1, -46.5 -46.5v -62a 46.5 46.5, 0, 0, 1, 46.5 -46.5" transform="rotate(-90,170.5,852.5)"/></clipPath><clipPath id="clip-path-corners-dot-color-0-1"><path d="m 124 806 m 66.429 93 h -39.857 c -14.681 0 -26.571 -11.891 -26.571 -26.571 v -39.857 c 0 -14.681 11.891 -26.571 26.571 -26.571 h 39.857 c 14.681 0 26.571 11.891 26.571 26.571 v 39.857 c 0 14.681 -11.891 26.571 -26.571 26.571 z"/></clipPath></defs><rect x="0" y="0" height="1024" width="1024" clip-path="url('#clip-path-background-color')" fill="#000000"/><rect x="62" y="62" height="899" width="899" clip-path="url('#clip-path-dot-color')" fill="#0753b6"/><rect x="62" y="62" height="217" width="217" clip-path="url('#clip-path-corners-square-color-0-0')" fill="#0753b6"/><rect x="124" y="124" height="93" width="93" clip-path="url('#clip-path-corners-dot-color-0-0')" fill="#000000"/><rect x="744" y="62" height="217" width="217" clip-path="url('#clip-path-corners-square-color-1-0')" fill="#0753b6"/><rect x="806" y="124" height="93" width="93" clip-path="url('#clip-path-corners-dot-color-1-0')" fill="#000000"/><rect x="62" y="744" height="217" width="217" clip-path="url('#clip-path-corners-square-color-0-1')" fill="#0753b6"/><rect x="124" y="806" height="93" width="93" clip-path="url('#clip-path-corners-dot-color-0-1')" fill="#000000"/></svg>